# xmcd
#
# Track frame offsets:
#	150
#	12472
#	33534
#	47704
#	71217
#	88150
#	106410
#	125275
#	143933
#	162938
#	177817
#
# Disc length: 2594 seconds
#
# Revision: 0
# Processed by: cddbd v1.5.2PL0 Copyright (c) Steve Scherf et al.
# Submitted via: EasyCDDAExtractor 15.3.0.1
#
DISCID=990a200b
DTITLE=Selena - Icon
DYEAR=2013
DGENRE=Latin
TTITLE0=Amor Prohibido
TTITLE1=I Could Fall In Love
TTITLE2=Bidi Bidi Bom Bom
TTITLE3=Dreaming Of You
TTITLE4=Techno Cumbia
TTITLE5=I'm Getting Used To You
TTITLE6=Only Love
TTITLE7=Is It The Beat
TTITLE8=Missing My Baby
TTITLE9=No Me Queda Mas
TTITLE10=Where Did The Feeling Go
EXTD=
EXTT0=
EXTT1=
EXTT2=
EXTT3=
EXTT4=
EXTT5=
EXTT6=
EXTT7=
EXTT8=
EXTT9=
EXTT10=
PLAYORDER=
